# xmcd
#
# Track frame offsets:
# 150
# 24358
# 49592
# 71971
# 97093
# 119074
# 139792
# 162792
# 179622
# 207839
# 231796
# 254520
#
# Disc length: 3859 seconds
#
#
# Revision: 0
# Processed by: cddbd v1.5.1PL2 Copyright (c) Steve Scherf et al.
# Submitted via: FreeRIP 2.942 
#
DISCID=b10f110c
DTITLE=RANDER CARLOS and GABRIEL - PROMESSAS
DYEAR=1900
DGENRE=GOSPEL
TTITLE0=PROMESSAS
TTITLE1=ENTÃO CANTE
TTITLE2=FOGO E GLÓRIA
TTITLE3=FILHO PRÓDIGO
TTITLE4=É PRECISO FÉ
TTITLE5=O NOME
TTITLE6=SOU TEU PAI
TTITLE7=NO MEIO DA UNÇÃO
TTITLE8=PARALÍTICO DE BETESDA
TTITLE9=SENHOE DESTA NAÇÃO
TTITLE10=DOIS CORAÇÕES
TTITLE11=ARREBATAMENTO
EXTD=
EXTT0=
EXTT1=
EXTT2=
EXTT3=
EXTT4=
EXTT5=
EXTT6=
EXTT7=
EXTT8=
EXTT9=
EXTT10=
EXTT11=
PLAYORDER=
